<svg width="40" height="117" viewBox="0 0 40 117" fill="none" xmlns="http://www.w3.org/2000/svg">
<path d="M25.1431 43.016C25.1431 43.7146 24.9938 44.3163 24.6953 44.821C24.3937 45.3227 23.9705 45.7105 23.4258 45.9844C22.878 46.2552 22.2363 46.3906 21.5007 46.3906C20.7744 46.3906 20.1342 46.2552 19.5803 45.9844C19.0263 45.7105 18.5939 45.3288 18.283 44.8395C17.9722 44.3471 17.8168 43.7715 17.8168 43.1129C17.8168 42.7128 17.8829 42.325 18.0153 41.9496C18.1476 41.5741 18.3553 41.2371 18.6385 40.9386C18.9216 40.64 19.2894 40.4046 19.7418 40.2322C20.1912 40.0599 20.7375 39.9737 21.3807 39.9737L21.87 39.9737L21.87 45.6104L20.8359 45.6104L20.8359 41.3263C20.4728 41.3263 20.1512 41.4002 19.8711 41.5479C19.5879 41.6957 19.3648 41.9034 19.2017 42.1712C19.0386 42.4358 18.957 42.7467 18.957 43.1037C18.957 43.4915 19.0524 43.83 19.2433 44.1193C19.431 44.4055 19.6772 44.6271 19.9819 44.7841C20.2835 44.938 20.6113 45.0149 20.9652 45.0149L21.7731 45.0149C22.247 45.0149 22.6502 44.9318 22.9826 44.7656C23.315 44.5964 23.5689 44.3609 23.7443 44.0593C23.9167 43.7577 24.0028 43.4053 24.0028 43.0021C24.0028 42.7405 23.9659 42.502 23.892 42.2866C23.8151 42.0711 23.7012 41.8849 23.5504 41.728C23.3996 41.571 23.2134 41.451 22.9918 41.3679L23.2273 40.0614C23.612 40.1661 23.949 40.3538 24.2383 40.6246C24.5245 40.8924 24.7476 41.2294 24.9077 41.6357C25.0646 42.0388 25.1431 42.4989 25.1431 43.016ZM17.9091 37.5178L20.6697 35.9528L17.9091 34.3739L17.9091 32.8643L21.4545 35.0756L25 32.8459L25 34.3555L22.3501 35.9528L25 37.5455L25 39.0597L21.4545 36.853L17.9091 39.032L17.9091 37.5178ZM27.6591 31.4471L17.9091 31.4471L17.9091 30.0991L19.0586 30.0991L19.0586 29.9837C18.9109 29.9036 18.7401 29.7882 18.5462 29.6374C18.3523 29.4866 18.183 29.2773 18.0384 29.0096C17.8906 28.7418 17.8168 28.3879 17.8168 27.9478C17.8168 27.3754 17.9614 26.8645 18.2507 26.4151C18.54 25.9658 18.957 25.6134 19.5018 25.358C20.0465 25.0994 20.7021 24.9702 21.4684 24.9702C22.2347 24.9702 22.8918 25.0979 23.4396 25.3533C23.9844 25.6088 24.4045 25.9596 24.6999 26.4059C24.9923 26.8522 25.1385 27.3615 25.1385 27.9339C25.1385 28.3648 25.0662 28.7172 24.9215 28.9911C24.7769 29.262 24.6076 29.4743 24.4137 29.6282C24.2198 29.7821 24.0475 29.9006 23.8967 29.9837L23.8967 30.0668L27.6591 30.0668L27.6591 31.4471ZM21.4545 30.0945C21.9531 30.0945 22.3902 30.0221 22.7656 29.8775C23.1411 29.7328 23.435 29.5236 23.6474 29.2496C23.8567 28.9757 23.9613 28.6403 23.9613 28.2433C23.9613 27.8308 23.852 27.4861 23.6335 27.2092C23.4119 26.9322 23.1119 26.7229 22.7333 26.5813C22.3548 26.4367 21.9285 26.3643 21.4545 26.3643C20.9867 26.3643 20.5666 26.4351 20.1942 26.5767C19.8219 26.7152 19.5279 26.9245 19.3125 27.2045C19.0971 27.4815 18.9893 27.8278 18.9893 28.2433C18.9893 28.6433 19.0924 28.9819 19.2986 29.2589C19.5049 29.5328 19.7926 29.7405 20.1619 29.8821C20.5312 30.0237 20.9621 30.0945 21.4545 30.0945ZM15.5455 22.0433L25 22.0433L25 23.4236L15.5455 23.4237L15.5455 22.0433ZM25.1431 17.1995C25.1431 17.8643 24.9908 18.4444 24.6861 18.9399C24.3814 19.4354 23.9551 19.8201 23.4073 20.094C22.8595 20.3679 22.2193 20.5049 21.4869 20.5049C20.7513 20.5049 20.1081 20.3679 19.5572 20.094C19.0063 19.8201 18.5785 19.4354 18.2738 18.9399C17.9691 18.4444 17.8168 17.8643 17.8168 17.1995C17.8168 16.5347 17.9691 15.9546 18.2738 15.4591C18.5785 14.9636 19.0063 14.5789 19.5572 14.305C20.1081 14.031 20.7513 13.8941 21.4869 13.8941C22.2193 13.8941 22.8595 14.031 23.4073 14.305C23.9551 14.5789 24.3814 14.9636 24.6861 15.4591C24.9908 15.9546 25.1431 16.5347 25.1431 17.1995ZM23.9844 17.1949C23.9844 16.764 23.8705 16.407 23.6428 16.1238C23.415 15.8407 23.1119 15.6314 22.7333 15.496C22.3548 15.3575 21.9377 15.2883 21.4822 15.2883C21.0298 15.2883 20.6143 15.3575 20.2358 15.496C19.8542 15.6314 19.5479 15.8407 19.3171 16.1238C19.0863 16.407 18.9709 16.764 18.9709 17.1949C18.9709 17.6288 19.0863 17.9889 19.3171 18.2751C19.5479 18.5583 19.8542 18.7691 20.2358 18.9076C20.6143 19.043 21.0298 19.1107 21.4822 19.1107C21.9377 19.1107 22.3548 19.043 22.7333 18.9076C23.1119 18.7691 23.415 18.5583 23.6428 18.2751C23.8705 17.9889 23.9844 17.6288 23.9844 17.1949ZM25 12.3533L17.9091 12.3533L17.9091 11.0192L19.0355 11.0192L19.0355 10.9453C18.6539 10.8161 18.3538 10.5883 18.1353 10.2621C17.9137 9.93276 17.8029 9.56037 17.8029 9.14489C17.8029 9.05871 17.806 8.95715 17.8121 8.8402C17.8183 8.72017 17.826 8.6263 17.8352 8.55859L19.1555 8.55859C19.1401 8.61399 19.1232 8.71248 19.1048 8.85405C19.0832 8.99562 19.0724 9.13719 19.0724 9.27876C19.0724 9.60499 19.1417 9.89583 19.2802 10.1513C19.4156 10.4036 19.6049 10.6037 19.848 10.7514C20.0881 10.8991 20.362 10.973 20.6697 10.973L25 10.973L25 12.3533ZM25.1431 4.56188C25.1431 5.2605 24.9938 5.86219 24.6953 6.36692C24.3937 6.86858 23.9705 7.25636 23.4258 7.53027C22.878 7.80111 22.2363 7.93652 21.5007 7.93652C20.7744 7.93652 20.1342 7.80111 19.5803 7.53027C19.0263 7.25636 18.5939 6.87473 18.283 6.38539C17.9722 5.89296 17.8168 5.31744 17.8168 4.65882C17.8168 4.25873 17.8829 3.87095 18.0153 3.49547C18.1476 3.12 18.3553 2.783 18.6385 2.48446C18.9216 2.18593 19.2894 1.95049 19.7418 1.77814C20.1912 1.60579 20.7375 1.51962 21.3807 1.51962L21.87 1.51962L21.87 7.15634L20.8359 7.15634L20.8359 2.87225C20.4728 2.87225 20.1512 2.94611 19.8711 3.09384C19.5879 3.24157 19.3648 3.44931 19.2017 3.71706C19.0386 3.98174 18.957 4.29258 18.957 4.64959C18.957 5.03738 19.0524 5.37592 19.2433 5.66522C19.431 5.95144 19.6772 6.17303 19.9819 6.32999C20.2835 6.48387 20.6113 6.56081 20.9652 6.56081L21.7731 6.56081C22.247 6.56081 22.6502 6.47772 22.9826 6.31152C23.315 6.14225 23.5689 5.90681 23.7443 5.6052C23.9167 5.30359 24.0028 4.9512 24.0028 4.54803C24.0028 4.28643 23.9659 4.04791 23.892 3.83247C23.8151 3.61704 23.7012 3.43084 23.5504 3.27388C23.3996 3.11692 23.2134 2.99689 22.9918 2.9138L23.2273 1.60733C23.612 1.71197 23.949 1.89971 24.2383 2.17054C24.5245 2.4383 24.7476 2.7753 24.9077 3.18155C25.0646 3.58472 25.1431 4.04483 25.1431 4.56188Z" fill="white"/>
<circle cx="20" cy="97" r="20" fill="#C90C0C"/>
<path d="M20.5 104L18 101.5H20.5H23L20.5 104Z" fill="white"/>
<path d="M20.5 90V104M20.5 104L18 101.5H23L20.5 104Z" stroke="white" stroke-width="1.5"/>
</svg>
