<svg width="40" height="117" viewBox="0 0 40 117" fill="none" xmlns="http://www.w3.org/2000/svg">
<path d="M25.1431 43.016C25.1431 41.4695 24.3814 40.3754 23.2273 40.0614L22.9918 41.3679C23.6612 41.6172 24.0028 42.2173 24.0028 43.0021C24.0028 44.1839 23.2365 44.978 21.87 45.0149L21.87 39.9737L21.3807 39.9737C18.8185 39.9737 17.8168 41.5064 17.8168 43.1129C17.8168 45.0888 19.3217 46.3906 21.5007 46.3906C23.7028 46.3906 25.1431 45.1072 25.1431 43.016ZM20.8359 45.0103C19.8295 44.9549 18.957 44.2255 18.957 43.1037C18.957 42.0327 19.7511 41.331 20.8359 41.3263L20.8359 45.0103ZM17.9091 37.5178L17.9091 39.032L21.4545 36.853L25 39.0597L25 37.5455L22.3501 35.9528L25 34.3555L25 32.8459L21.4545 35.0756L17.9091 32.8643L17.9091 34.3739L20.6697 35.9528L17.9091 37.5178ZM27.6591 31.4471L27.6591 30.0668L23.8967 30.0668L23.8967 29.9837C24.3491 29.7344 25.1385 29.2266 25.1385 27.9339C25.1385 26.2166 23.7628 24.9702 21.4684 24.9702C19.1694 24.9702 17.8168 26.2351 17.8168 27.9478C17.8168 29.2635 18.62 29.739 19.0586 29.9837L19.0586 30.0991L17.9091 30.0991L17.9091 31.4471L27.6591 31.4471ZM21.4545 30.0945C19.9727 30.0945 18.9893 29.4482 18.9893 28.2433C18.9893 26.9922 20.0465 26.3643 21.4545 26.3643C22.8764 26.3643 23.9613 27.0107 23.9613 28.2433C23.9613 29.4297 22.9457 30.0945 21.4545 30.0945ZM15.5455 22.0433L15.5455 23.4237L25 23.4236L25 22.0433L15.5455 22.0433ZM25.1431 17.1995C25.1431 15.2005 23.6797 13.8941 21.4869 13.8941C19.2802 13.8941 17.8168 15.2005 17.8168 17.1995C17.8168 19.1984 19.2802 20.5049 21.4869 20.5049C23.6797 20.5049 25.1431 19.1984 25.1431 17.1995ZM23.9844 17.1949C23.9844 18.5013 22.8441 19.1107 21.4822 19.1107C20.125 19.1107 18.9709 18.5013 18.9709 17.1949C18.9709 15.8976 20.125 15.2883 21.4822 15.2883C22.8441 15.2883 23.9844 15.8976 23.9844 17.1949ZM25 12.3533L25 10.973L20.6697 10.973C19.7418 10.973 19.0724 10.2575 19.0724 9.27876C19.0724 8.99254 19.1232 8.66939 19.1555 8.55859L17.8352 8.55859C17.8168 8.69709 17.8029 8.96946 17.8029 9.14489C17.8029 9.97585 18.2738 10.6868 19.0355 10.9453L19.0355 11.0192L17.9091 11.0192L17.9091 12.3533L25 12.3533ZM25.1431 4.56188C25.1431 3.01536 24.3814 1.92125 23.2273 1.60733L22.9918 2.9138C23.6612 3.16309 24.0028 3.76323 24.0028 4.54803C24.0028 5.72985 23.2365 6.52388 21.87 6.56081L21.87 1.51962L21.3807 1.51962C18.8185 1.51962 17.8168 3.05229 17.8168 4.65882C17.8168 6.63468 19.3217 7.93652 21.5007 7.93652C23.7028 7.93652 25.1431 6.65314 25.1431 4.56188ZM20.8359 6.5562C19.8295 6.5008 18.957 5.7714 18.957 4.64959C18.957 3.57857 19.7511 2.87686 20.8359 2.87225L20.8359 6.5562Z" fill="white"/>
<circle opacity="0.3" cx="20" cy="97" r="20" fill="#AFC0E3"/>
<path d="M20.5 104L18 101.5H20.5H23L20.5 104Z" fill="white"/>
<path d="M20.5 90V104M20.5 104L18 101.5H23L20.5 104Z" stroke="white" stroke-width="1.5"/>
</svg>
