<svg width="28" height="28" viewBox="0 0 28 28" fill="none" xmlns="http://www.w3.org/2000/svg">
<path fill-rule="evenodd" clip-rule="evenodd" d="M17.0945 5.21757C17.1076 5.19888 17.1334 5.19434 17.1521 5.20743L18.4302 6.10236C18.4489 6.11545 18.4534 6.14121 18.4403 6.15991L16.6614 8.70042C17.5263 8.97671 18.1154 9.27473 18.1154 9.27473C18.1154 9.27473 16.6753 11.7519 14.2326 11.7519C11.79 11.7519 10.0542 9.44313 10.0542 9.44313C10.0542 9.44313 10.6697 9.05036 11.582 8.71349L9.63081 6.38817C9.61615 6.37068 9.61844 6.34462 9.63591 6.32995L10.8311 5.32703C10.8486 5.31236 10.8747 5.31464 10.8894 5.33212L13.3599 8.2764C13.5714 8.25247 13.7869 8.23909 14.0044 8.23909C14.317 8.23909 14.6292 8.26286 14.934 8.30318L17.0945 5.21757ZM17.5778 11.8693C18.2296 11.4037 19.216 10.1886 19.216 10.1886C19.216 10.1886 21.7355 12.1852 21.7355 16.4186C21.7355 20.652 17.3797 23.2 17.3797 23.2C17.3797 23.2 15.2986 21.0982 14.7877 18.434C14.2768 15.7698 15.5434 12.8115 15.5434 12.8115C15.5434 12.8115 16.9259 12.3348 17.5778 11.8693ZM10.5576 11.8693C9.90574 11.4037 8.91938 10.1886 8.91938 10.1886C8.91938 10.1886 6.3999 12.1852 6.3999 16.4186C6.3999 20.652 10.7557 23.2 10.7557 23.2C10.7557 23.2 12.8368 21.0982 13.3477 18.434C13.8586 15.7698 12.592 12.8115 12.592 12.8115C12.592 12.8115 11.2095 12.3348 10.5576 11.8693Z" fill="#9BBA48"/>
</svg>
