<svg width="28" height="28" viewBox="0 0 28 28" fill="none" xmlns="http://www.w3.org/2000/svg">
<path fill-rule="evenodd" clip-rule="evenodd" d="M13.2764 21.1205C13.6183 21.1728 13.9686 21.1999 14.3252 21.1999C18.1221 21.1999 21.2002 18.1219 21.2002 14.325C21.2002 10.528 18.1221 7.44995 14.3252 7.44995C14.0705 7.44995 13.8189 7.46381 13.5714 7.49081C15.4549 8.91776 16.7002 11.3896 16.7002 14.2C16.7002 17.1545 15.3238 19.735 13.2764 21.1205ZM14.2002 23.2C19.1707 23.2 23.2002 19.1705 23.2002 14.2C23.2002 9.22938 19.1707 5.19995 14.2002 5.19995C9.22962 5.19995 5.2002 9.22938 5.2002 14.2C5.2002 19.1705 9.22962 23.2 14.2002 23.2Z" fill="#595761"/>
</svg>
