<svg width="28" height="28" viewBox="0 0 28 28" fill="none" xmlns="http://www.w3.org/2000/svg">
<path fill-rule="evenodd" clip-rule="evenodd" d="M14.7434 14.1606C14.8654 14.0862 14.9689 13.9303 15.0524 13.7571C16.1508 14.206 16.9228 15.2669 16.9228 16.5041C16.9228 18.1476 15.5605 19.48 13.88 19.48C13.1902 19.48 12.5539 19.2555 12.0436 18.8771C11.8762 18.7978 11.7384 18.7217 11.6257 18.6593C11.4509 18.5627 11.3362 18.4993 11.2644 18.5092C11.0546 18.5382 11.1155 18.7312 11.1709 18.9066C11.2085 19.0258 11.2435 19.1368 11.1893 19.1825C11.1325 19.2305 10.9487 19.0552 10.734 18.8505C10.4416 18.5717 10.0919 18.2383 9.92695 18.3384C9.79656 18.4176 9.92316 18.6325 10.0781 18.8955L10.0896 18.915C10.1551 19.0261 10.2309 19.1393 10.3002 19.2426C10.4409 19.4525 10.5542 19.6217 10.4975 19.6503C10.429 19.6849 9.95135 19.3625 9.54885 18.915C9.39349 18.7422 9.24302 18.555 9.10317 18.381V18.381C8.79707 18.0001 8.54204 17.6828 8.39889 17.7204C8.22667 17.7656 8.35695 18.1208 8.54837 18.4626C8.63788 18.6225 8.74317 18.7853 8.83433 18.9262V18.9263C8.97612 19.1454 9.08373 19.3117 9.04471 19.3322C8.99204 19.3597 8.52865 18.9079 8.21391 18.3384C8.02697 18.0002 7.86999 17.6264 7.74291 17.3238C7.60509 16.9956 7.50243 16.7512 7.43484 16.7266C7.19997 16.6411 7.19997 17.12 7.29417 17.8111C7.30646 17.9013 7.32475 17.9959 7.34729 18.0922C8.26079 21.0479 11.067 23.2 14.3871 23.2C18.4483 23.2 21.7404 19.9801 21.7404 16.0081C21.7404 12.2277 18.7582 9.12856 14.9691 8.83841C14.9738 8.66032 15.0668 8.30717 15.0668 8.30717C15.0668 8.30717 15.7357 6.68872 15.7711 6.34288C15.7734 6.31992 15.7762 6.29498 15.7792 6.26842C15.8208 5.89474 15.8983 5.19995 15.3006 5.19995C14.9814 5.19995 14.833 5.43742 14.6632 5.70901V5.70901C14.598 5.81328 14.5297 5.92257 14.4473 6.02538C13.8543 6.76594 12.8572 7.69073 12.2917 8.18342C11.0966 9.22478 9.92411 10.0806 9.24025 10.5798L9.24021 10.5798C8.92918 10.8068 8.71927 10.9601 8.6543 11.0234C8.16471 11.5007 6.40928 14.667 6.40928 14.667C6.40928 14.667 5.8416 15.6829 6.04338 15.889C6.24516 16.095 6.73175 16.0478 6.73175 16.0478C6.73175 16.0478 13.2687 14.5481 13.854 14.4298C14.0115 14.398 14.1228 14.3796 14.2082 14.3655C14.44 14.3272 14.4817 14.3203 14.7434 14.1606ZM10.1215 12.2335C9.77065 12.567 9.18871 13.3631 9.18871 13.3631C9.18871 13.3631 10.2703 13.4297 10.8659 12.8635C11.4616 12.2973 11.3251 11.3324 11.3251 11.3324C11.3251 11.3324 10.4724 11.8999 10.1215 12.2335Z" fill="#2C6AC1"/>
</svg>
