<svg width="28" height="28" viewBox="0 0 28 28" fill="none" xmlns="http://www.w3.org/2000/svg">
<path fill-rule="evenodd" clip-rule="evenodd" d="M9.21029 18.6872L11.7767 17.9431L13.9933 21.9961C13.9962 22.0013 14.0038 22.0013 14.0066 21.9961L16.2233 17.9431L18.7897 18.6872C18.7955 18.6889 18.8008 18.6835 18.7991 18.6778L18.0548 16.1622L21.996 14.0066C22.0013 14.0038 22.0013 13.9962 21.9961 13.9934L18.0223 11.82L18.7991 9.19464C18.8008 9.18889 18.7955 9.18354 18.7897 9.1852L16.1631 9.94682L14.0066 6.00394C14.0038 5.99869 13.9962 5.99869 13.9934 6.00394L11.8369 9.94682L9.21029 9.1852C9.20454 9.18354 9.1992 9.18889 9.20092 9.19464L9.97766 11.82L6.00394 13.9934C5.99869 13.9962 5.99869 14.0038 6.00394 14.0066L9.94516 16.1622L9.20092 18.6778C9.1992 18.6835 9.20454 18.6889 9.21029 18.6872ZM11.2018 14.0276L13.02 15.022L14.0143 16.8401C14.0172 16.8454 14.0248 16.8454 14.0276 16.8401L15.022 15.022L16.8401 14.0276C16.8454 14.0248 16.8454 14.0172 16.8401 14.0143L15.022 13.02L14.0276 11.2018C14.0248 11.1965 14.0172 11.1965 14.0143 11.2018L13.02 13.02L11.2018 14.0143C11.1965 14.0172 11.1965 14.0248 11.2018 14.0276Z" fill="#E296E1"/>
</svg>
