<svg width="28" height="28" viewBox="0 0 28 28" fill="none" xmlns="http://www.w3.org/2000/svg">
<path fill-rule="evenodd" clip-rule="evenodd" d="M8.62595 7.33018C8.81959 6.56567 9.51218 6 10.3369 6C10.9555 6 11.4997 6.31827 11.8149 6.8H12.3309C12.6515 6.47099 13.0994 6.26667 13.5951 6.26667C14.3217 6.26667 14.9459 6.70588 15.2164 7.33333H15.6485C15.9192 7.16433 16.2391 7.06667 16.5817 7.06667C17.3084 7.06667 17.9325 7.50588 18.2031 8.13333H19.3779C19.388 8.13333 19.3974 8.13604 19.4055 8.14075C19.4591 8.13584 19.5135 8.13333 19.5684 8.13333C20.5431 8.13333 21.3332 8.92348 21.3332 9.89819V15.1902L21.3333 15.2L21.3332 15.2098V15.286C21.3332 15.3183 21.3323 15.3505 21.3306 15.3825C21.2244 19.0537 17.9233 22 13.8666 22C9.74284 22 6.3999 18.9555 6.3999 15.2C6.3999 13.3872 7.17881 11.7401 8.44845 10.5211C8.44528 12.2884 8.47513 14.1154 8.61274 14.0841C8.98119 14.0001 8.69331 8.52623 8.62595 7.33018Z" fill="#C44D61"/>
</svg>
