<svg width="28" height="28" viewBox="0 0 28 28" fill="none" xmlns="http://www.w3.org/2000/svg">
<path fill-rule="evenodd" clip-rule="evenodd" d="M17.3343 19.1005C17.5567 18.2873 17.125 16.6155 17.125 16.6155C17.125 16.6155 16.8119 17.9775 16.3227 18.4808C15.9053 18.9102 15.3939 19.208 14.6606 19.2863C15.2602 18.995 15.6725 18.3878 15.6725 17.6859C15.6725 16.7006 14.86 15.9018 13.8577 15.9018C12.8554 15.9018 12.0428 16.7006 12.0428 17.6859C12.0428 17.955 12.1034 18.2102 12.212 18.439C11.5851 17.9395 11.4865 17.1388 11.4865 17.1388C11.4865 17.1388 10.7865 20.0452 12.7153 21.4123C14.6442 22.7795 18.4227 21.6044 18.4227 21.6044C18.4227 21.6044 13.0154 25.4091 9.0085 21.2681C5.55688 17.701 8.10762 13.0047 8.10762 13.0047C8.10762 13.0047 7.99746 13.4404 7.99746 13.9461C7.99746 14.4518 8.27166 14.8366 8.27166 14.8366C8.27166 14.8366 9.08957 13.1126 9.72611 12.4115C10.3285 11.7479 11.0837 11.2098 11.736 10.7449C12.2381 10.3871 12.6793 10.0728 12.9427 9.77811C14.3939 8.15549 13.5041 5.19995 13.5041 5.19995C13.5041 5.19995 15.1399 6.64206 15.5966 8.50456C15.7707 9.21452 15.6587 10.0223 15.5586 10.7447C15.396 11.9173 15.2646 12.8649 16.439 12.8034C18.3368 12.704 16.6877 9.77811 16.6877 9.77811C16.6877 9.77811 20.9926 12.0408 20.671 15.998C20.3494 19.9553 15.9655 20.8549 15.9655 20.8549C15.9655 20.8549 17.1118 19.9137 17.3343 19.1005Z" fill="#F66D6D"/>
</svg>
