<svg width="28" height="28" viewBox="0 0 28 28" fill="none" xmlns="http://www.w3.org/2000/svg">
<path fill-rule="evenodd" clip-rule="evenodd" d="M11.5848 21.0666C13.9286 21.0666 15.9352 19.764 16.7636 17.9173C16.7738 17.8948 13.4377 18.7843 13.5441 18.4699C13.5916 18.3295 15.6366 17.5824 17.1265 16.711C17.9829 16.2102 18.3772 15.15 18.3772 15.15C18.3772 15.15 16.9345 15.8504 16.2051 16.0281C14.7354 16.3863 13.4416 16.3477 13.4416 16.3104C13.4416 16.2297 15.5899 15.8215 18.5758 14.002C19.9802 13.1461 20.3617 11.6719 20.3617 11.6719C20.3617 11.6719 18.8176 12.5917 17.8842 12.8953C15.6706 13.6154 13.6505 13.8324 13.6505 13.735C13.6505 13.5264 15.4282 13.0375 17.313 12.1242C18.293 11.6494 19.1417 11.029 20.1253 10.3391C21.7346 9.21033 22 7.19995 22 7.19995C22 7.19995 20.4127 8.22371 19.6382 8.56369C16.4419 9.96655 13.6197 10.7024 11.5848 10.8617C8.51301 11.1022 6 13.2455 6 16.0281C6 18.8108 8.50038 21.0666 11.5848 21.0666Z" fill="#A6BBE8"/>
</svg>
