<svg width="28" height="28" viewBox="0 0 28 28" fill="none" xmlns="http://www.w3.org/2000/svg">
<path fill-rule="evenodd" clip-rule="evenodd" d="M17.5297 21.9446C16.0865 22.0185 14.4342 22.0185 13.8727 21.9446C9.49281 21.3684 6 18.166 6 13.8375C6 9.50897 9.58172 6 14 6C18.4183 6 22 9.50897 22 13.8375C22 15.8507 21.2252 17.6865 19.9519 19.0746C19.6061 19.4515 20.0805 19.7159 20.5626 19.9845C21.0353 20.248 21.5154 20.5155 21.2364 20.8973C20.9289 21.3179 19.2622 21.8559 17.5297 21.9446ZM12.875 12.8578C12.875 13.5341 12.3153 14.0824 11.625 14.0824C10.9347 14.0824 10.375 13.5341 10.375 12.8578C10.375 12.4042 10.6267 12.0082 11.0008 11.7966C11.0223 12.3863 11.5072 12.8578 12.1022 12.8578H12.875V12.8578ZM16.7493 11.7966C16.7277 12.3863 16.2428 12.8578 15.6478 12.8578H14.875V12.8578C14.875 13.5341 15.4347 14.0824 16.125 14.0824C16.8153 14.0824 17.375 13.5341 17.375 12.8578C17.375 12.4042 17.1233 12.0082 16.7493 11.7966Z" fill="#616EB7"/>
</svg>
