<svg width="28" height="28" viewBox="0 0 28 28" fill="none" xmlns="http://www.w3.org/2000/svg">
<path fill-rule="evenodd" clip-rule="evenodd" d="M8.77564 19.9574C8.71863 19.9038 8.66224 19.8491 8.60651 19.7934C5.66437 16.8513 5.66437 12.0811 8.60651 9.13898C11.5486 6.19683 20.9234 6 20.9234 6C20.9234 6 22.2031 16.8513 19.2609 19.7934C16.6479 22.4064 12.5931 22.6987 9.65746 20.6704L12.0229 17.7676L15.8042 16.9512L12.7175 16.6426L14.6791 14.6453L16.912 14.1562L15.1464 13.6333L16.912 10.4481L14.4006 13.2651L13.4307 11.8966L13.7721 14.1562L12.0229 16.1282L11.212 13.6333V16.9512L8.77564 19.9574Z" fill="#73B861"/>
</svg>
