<svg width="28" height="28" viewBox="0 0 28 28" fill="none" xmlns="http://www.w3.org/2000/svg">
<path fill-rule="evenodd" clip-rule="evenodd" d="M19.3694 18.2953C20.9851 17.0034 22 15.1368 22 13.0609C22 9.16128 18.4183 6 14 6C9.58172 6 6 9.16128 6 13.0609C6 15.0618 6.94293 16.8683 8.45798 18.1532C8.36616 18.4702 8.31579 18.815 8.31579 19.1756C8.31579 20.7355 9.25834 22 10.4211 22C11.1766 22 11.8391 21.4661 12.2105 20.6642C12.5819 21.4661 13.2445 22 14 22C14.6887 22 15.3001 21.5564 15.6842 20.8705C16.0683 21.5564 16.6798 22 17.3684 22C18.5311 22 19.4737 20.7355 19.4737 19.1756C19.4737 18.8682 19.4371 18.5723 19.3694 18.2953ZM18.6316 13.201C18.6316 15.1808 16.5108 16.7858 13.8948 16.7858C11.2787 16.7858 9.15791 15.1808 9.15791 13.201C9.15791 11.2212 11.2787 9.61619 13.8948 9.61619C16.5108 9.61619 18.6316 11.2212 18.6316 13.201Z" fill="#AC6ACA"/>
</svg>
