<svg width="28" height="28" viewBox="0 0 28 28" fill="none" xmlns="http://www.w3.org/2000/svg">
<path fill-rule="evenodd" clip-rule="evenodd" d="M20.0865 19.2884C20.0865 19.2884 18.0688 20.9067 14.0536 20.237C11.0074 19.729 9.38263 16.3709 9.38263 14.5659C9.38263 10.2864 12.55 9.31248 14.6914 9.31248C16.8328 9.31248 18.2297 11.4002 18.2297 13.0166C18.2297 14.6331 17.0865 16.0469 15.3073 16.0469C13.5282 16.0469 13.0012 14.7979 13.0012 13.6495C13.0012 12.5012 13.9303 12.0966 14.7776 12.0966C15.6249 12.0966 15.9151 12.82 15.9151 13.4417C15.9151 14.0635 15.4327 14.2861 15.0303 14.2861C14.6279 14.2861 14.5882 14.0832 14.4342 13.8698C14.2802 13.6565 14.6306 12.8491 14.0536 12.8491C13.4767 12.8491 13.3692 13.7773 13.3692 13.7773C13.3692 13.7773 13.5795 15.5692 15.3073 15.5383C17.0351 15.5073 17.8548 14.1715 17.6166 12.8491C17.3784 11.5265 16.0949 10.1212 13.8424 10.4052C11.5898 10.6892 10.6701 12.9652 11.0755 15.3974C11.4809 17.8297 14.3947 19.239 16.6858 18.732C18.9768 18.2249 21.2587 16.5663 21.2587 12.3611C21.2587 8.15582 17.6166 5.62808 13.2738 6.04467C8.93099 6.46125 6.23517 10.258 6.40772 14.8199C6.58028 19.3818 10.909 21.8664 14.5693 21.9944C18.2297 22.1225 20.4737 20.0036 20.4737 20.0036C20.4737 20.0036 20.9783 19.5536 20.7805 19.2022C20.5826 18.8508 20.0865 19.2884 20.0865 19.2884Z" fill="#EB8B85"/>
</svg>
