<svg width="28" height="28" viewBox="0 0 28 28" fill="none" xmlns="http://www.w3.org/2000/svg">
<path fill-rule="evenodd" clip-rule="evenodd" d="M19.4422 13.4361C19.4411 13.4345 19.4406 13.4326 19.4409 13.4306L20.7142 6.00592C20.7148 6.0025 20.7178 6 20.7212 6H21.1242C21.1273 6 21.1301 6.00202 21.131 6.00498L23.9997 15.0879C24.0006 15.0907 23.9996 15.0938 23.9973 15.0956L21.8821 16.747C21.879 16.7495 21.8744 16.7489 21.872 16.7456L19.4422 13.4361ZM4 18.3581C4 18.3612 4.00198 18.3639 4.00491 18.3649L8.36499 19.7905C8.3671 19.7912 8.36944 19.7908 8.37127 19.7896L18.1171 13.0613C18.1187 13.0602 18.1198 13.0584 18.1201 13.0565L19.1652 6.04399C19.1658 6.03968 19.1625 6.03582 19.1582 6.03582H10.5258C10.5236 6.03582 10.5217 6.03676 10.5203 6.03839L4.00164 13.9022C4.00058 13.9035 4 13.905 4 13.9067V18.3581ZM10.1819 20.1537L14.9452 21.714C14.9473 21.7147 14.9497 21.7144 14.9515 21.7131L20.6226 17.6452C20.6257 17.643 20.6265 17.6387 20.6243 17.6355L18.4984 14.4719C18.4962 14.4686 18.4918 14.4677 18.4885 14.47L10.1819 20.1537Z" fill="#8BCEC1"/>
</svg>
