<svg width="28" height="28" viewBox="0 0 28 28" fill="none" xmlns="http://www.w3.org/2000/svg">
<path fill-rule="evenodd" clip-rule="evenodd" d="M19.6784 17.3827C19.6784 20.5955 17.0641 23.2 13.8392 23.2C10.6143 23.2 8 20.5955 8 17.3827C8 14.258 13.5234 5.67627 13.8263 5.20796C13.8332 5.19728 13.8453 5.19728 13.8522 5.20796C14.1551 5.67627 19.6784 14.258 19.6784 17.3827ZM12.8658 21.335C9.90274 20.6866 10.4098 17.4043 10.4098 17.4043C10.4098 17.4043 11.2189 19.3857 13.1824 20.0276C15.1459 20.6694 17.5188 19.728 17.5188 19.728C17.5188 19.728 15.8289 21.9833 12.8658 21.335Z" fill="#88A3D4"/>
</svg>
